<?xml version="1.0" encoding="UTF-8"?>
<svg xmlns="http://www.w3.org/2000/svg" id="Layer_1" data-name="Layer 1" viewBox="0 0 24 24">
  <path d="M21.232,2.845c-.103-.322-.362-.57-.688-.659-.177-.048-4.369-1.186-7.613-1.186-3.334,0-7.446,1.139-7.619,1.188-.337,.094-.601,.358-.694,.696-.012,.045-.096,.351-.213,.86h-.766c-.829,0-1.5,.671-1.5,1.5s.671,1.5,1.5,1.5h.202c-.07,.472-.137,.976-.195,1.504h-.577c-.829,0-1.5,.671-1.5,1.5s.671,1.5,1.5,1.5h.372c-.006,.249-.009,.499-.009,.752s.003,.503,.009,.752h-.372c-.829,0-1.5,.671-1.5,1.5s.671,1.5,1.5,1.5h.577c.058,.528,.125,1.032,.195,1.504h-.203c-.829,0-1.5,.671-1.5,1.5s.671,1.5,1.5,1.5h.767c.117,.509,.2,.814,.213,.859,.092,.333,.349,.596,.681,.693,.165,.049,4.077,1.191,7.633,1.191s7.467-1.143,7.632-1.191c.318-.094,.569-.339,.67-.656,.049-.154,1.198-3.825,1.198-9.153s-1.149-9.002-1.199-9.155Zm-11.546,3.925c.248-.737,.835-1.324,1.572-1.572,1.11-.373,2.236-.372,3.346,0,.737,.248,1.324,.835,1.572,1.572,.372,1.11,.372,2.236,0,3.346-.248,.737-.835,1.324-1.572,1.572-.555,.186-1.114,.279-1.672,.279s-1.118-.093-1.673-.279c-.737-.248-1.324-.835-1.572-1.572-.372-1.11-.372-2.236,0-3.346Zm6.697,12.311c-.552,0-1-.448-1-1,0-1.352-1.1-2.452-2.452-2.452s-2.453,1.1-2.453,2.452c0,.552-.448,1-1,1s-1-.448-1-1c0-2.455,1.998-4.452,4.453-4.452s4.452,1.997,4.452,4.452c0,.552-.448,1-1,1Z"/>
  <path d="M11.894,9.791c.698,.234,1.376,.235,2.073,0,.146-.049,.263-.166,.312-.311,.234-.698,.234-1.376,0-2.074-.049-.146-.166-.262-.312-.311-.697-.234-1.375-.234-2.073,0-.146,.049-.263,.166-.312,.311-.234,.698-.234,1.376,0,2.074,.049,.146,.166,.262,.312,.311Z"/>
</svg>
