<svg id="Layer_1" viewBox="0 0 24 24" xmlns="http://www.w3.org/2000/svg" data-name="Layer 1"><path d="m10.963 17.822c-3.536 3.384-4.873 2.047-5.849 1.069-1.068-1.069-2.397-2.399 1.382-6.183 1.644-1.646 3.019-2.481 4.088-2.481.423 0 1.1.114 2.082 1.097.585.586 1.535.587 2.122.001.586-.585.587-1.535.001-2.122-3.029-3.033-6.393-2.644-10.416 1.384-3.967 3.974-4.419 7.384-1.382 10.425 1.325 1.327 2.716 1.99 4.192 1.99 1.814 0 3.755-1.003 5.854-3.013.599-.573.619-1.522.046-2.121-.574-.599-1.523-.62-2.121-.046z"/><path d="m21.008 2.977c-2.952-2.955-6.237-2.621-10.045 1.021-.599.573-.62 1.522-.047 2.121s1.522.619 2.121.047c3.537-3.383 4.873-2.046 5.849-1.07 1.067 1.07 2.396 2.4-1.382 6.184-1.651 1.654-3.026 2.492-4.086 2.492-.419 0-1.092-.115-2.083-1.108-.586-.587-1.536-.587-2.122-.001-.586.585-.587 1.535-.001 2.122 1.336 1.338 2.712 1.988 4.207 1.988 1.938 0 3.912-1.072 6.209-3.372 3.967-3.973 4.419-7.382 1.382-10.424z"/></svg>