<svg id="Layer_1" viewBox="0 0 24 24" xmlns="http://www.w3.org/2000/svg" data-name="Layer 1"><path d="m9 12c-3.309 0-6-2.691-6-6s2.691-6 6-6 6 2.691 6 6-2.691 6-6 6zm4.595 9.405c-.783-.783-.783-2.057 0-2.84l1.42-1.42c.784-.783 2.058-.783 2.84 0l1.42-1.42c-1.566-1.566-4.114-1.566-5.68 0l-1.42 1.42c-1.566 1.566-1.566 4.113-.002 5.678 0 0 0 .001.001.002 1.566 1.566 4.114 1.566 5.681 0l.384-.384c-.825-.044-1.641-.254-2.394-.635-.74.336-1.642.206-2.25-.402zm9.231-9.23s0 0 0 0c-1.566-1.566-4.114-1.566-5.681 0l-.384.384c.825.044 1.641.254 2.394.635.74-.336 1.642-.206 2.25.402.782.783.782 2.057 0 2.84l-1.42 1.42c-.784.783-2.058.783-2.84 0l-1.42 1.42c.783.783 1.811 1.174 2.84 1.174s2.057-.391 2.84-1.174l1.42-1.42c1.566-1.566 1.566-4.114 0-5.68zm-12.065 3.556 1.73-1.731h-7.491c-2.761 0-5 2.239-5 5v5h10.565c-2.127-2.361-2.075-5.998.196-8.269z"/></svg>