<?xml version="1.0" encoding="UTF-8"?>
<svg xmlns="http://www.w3.org/2000/svg" id="Layer_1" data-name="Layer 1" viewBox="0 0 24 24">
  <path d="M6,14c2.206,0,4-1.794,4-4s-1.794-4-4-4-4,1.794-4,4,1.794,4,4,4Zm2.5,2H3.5c-1.93,0-3.5,1.57-3.5,3.5v4.5H12v-4.5c0-1.93-1.57-3.5-3.5-3.5ZM21.999,0L13.999,.002C12.899,.002,11.999,.903,12,2.003l.002,9.771c0,.858,.949,1.378,1.672,.915l2.454-1.689h7.872V2c0-1.105-.896-2-2.001-2Zm-2.999,10h-2v-2h2v2Zm.397-3.346c-.397,.209-.397,.285-.397,.346h-2c0-1.344,1.064-1.904,1.465-2.116,.333-.175,.62-.587,.511-1.112-.072-.346-.355-.648-.689-.736-.425-.111-.736,.06-.881,.171-.254,.196-.405,.502-.405,.819h-2c0-.932,.442-1.83,1.184-2.402,.742-.573,1.695-.763,2.61-.522,1.073,.282,1.913,1.17,2.14,2.263,.278,1.336-.339,2.658-1.537,3.289Z"/>
</svg>
