<svg id="Layer_1" viewBox="0 0 24 24" xmlns="http://www.w3.org/2000/svg" data-name="Layer 1"><path d="m13.915 15c.506 0 .795.612.447.98-.592.628-1.431 1.02-2.362 1.02s-1.77-.392-2.362-1.02c-.347-.368-.059-.98.447-.98h3.831zm9.261-1.171c-.005-.028-.022-.049-.029-.075.544-.629.854-1.413.854-2.257 0-1.433-.871-2.689-2.15-3.223-.824-4.761-4.946-8.274-9.851-8.274-6.904 0-8.876 4.674-10.181 7.767-.44 1.042-.895 2.12-1.322 2.369-.371.216-.562.645-.477 1.064.086.42.43.739.856.792.219.028 3.521.402 7.257-1.104-.084.187-.133.393-.133.612 0 .828.672 1.5 1.5 1.5s1.5-.672 1.5-1.5c0-.705-.488-1.291-1.142-1.452 1.728-.967 3.463-2.375 4.956-4.467.209-.293.837-1.585 1.128-2.541 2.18 1.232 3.732 3.455 4.012 6.109.047.442.379.8.816.879.712.13 1.23.748 1.23 1.474 0 .395-.155.765-.436 1.042-.281.276-.638.421-1.042.42l-.433-.007c-.399-.007-.815.262-.958.667-.917 2.597-4 5.376-7.13 5.376h-.001c-2.591 0-5.024-1.876-6.286-3.734-.565-.834-1.484-1.311-2.495-1.302-1.407.028-2.603 1.055-2.843 2.44l-.302 1.739c-.253 1.458.148 2.943 1.101 4.075.952 1.132 2.346 1.78 3.823 1.78h3.001c.537.011 1.011-.462 1-.999v-2.598c.985.388 2.004.599 3 .599 1.041 0 2.05-.219 3-.591v2.589c0 .553.448 1 1 1h3c1.479 0 2.872-.648 3.824-1.779.953-1.133 1.354-2.618 1.101-4.076l-.75-4.314zm-8.676-.829c-.828 0-1.5-.672-1.5-1.5s.672-1.5 1.5-1.5 1.5.672 1.5 1.5-.672 1.5-1.5 1.5z"/></svg>